<svg xmlns="http://www.w3.org/2000/svg" width="32.144" height="32.087" viewBox="0 0 32.144 32.087">
  <g id="zoom-in" transform="translate(0 -0.421)">
    <g id="Group_931" data-name="Group 931" transform="translate(14.812 6.903)">
      <g id="Group_930" data-name="Group 930">
        <path id="Path_11661" data-name="Path 11661" d="M225.842,100.743V96.422h-2.161v4.321H219.36V102.9h4.321v4.321h2.161V102.9h4.321v-2.161Z" transform="translate(-219.36 -96.422)" fill="#fff"/>
      </g>
    </g>
    <g id="Group_933" data-name="Group 933" transform="translate(0 0.421)">
      <g id="Group_932" data-name="Group 932" transform="translate(0 0)">
        <path id="Path_11662" data-name="Path 11662" d="M27.868,3.176A11.887,11.887,0,0,0,11.084,19.867L0,30.984l1.523,1.523L12.651,21.434A11.884,11.884,0,1,0,27.868,3.176ZM20.213,22.482A10.177,10.177,0,1,1,30.39,12.3,10.177,10.177,0,0,1,20.213,22.482Z" transform="translate(0 -0.421)" fill="#fff"/>
      </g>
    </g>
  </g>
</svg>
