<svg xmlns="http://www.w3.org/2000/svg" width="18.65" height="17.483" viewBox="0 0 18.65 17.483">
  <g id="browser" transform="translate(0 -16.017)">
    <path id="Path_11638" data-name="Path 11638" d="M54.06,203.037H41.676A1.677,1.677,0,0,1,40,201.362v-8.816a.583.583,0,0,1,1.166,0v8.816a.511.511,0,0,0,.51.51H54.06a.511.511,0,0,0,.51-.51v-8.816a.583.583,0,0,1,1.166,0v8.816A1.677,1.677,0,0,1,54.06,203.037Z" transform="translate(-38.543 -169.537)" fill="#fff"/>
    <path id="Path_11639" data-name="Path 11639" d="M18.067,25.048a.581.581,0,0,1-.412-.171l-7.248-7.248a1.532,1.532,0,0,0-2.164,0L1,24.878a.583.583,0,1,1-.824-.824l7.248-7.248a2.7,2.7,0,0,1,3.812,0l7.248,7.248a.583.583,0,0,1-.412.995Z" transform="translate(0)" fill="#fff"/>
    <path id="Path_11640" data-name="Path 11640" d="M181.245,295.56h-4.663a.583.583,0,0,1-.583-.583V289.8a1.823,1.823,0,0,1,1.821-1.821h2.186a1.823,1.823,0,0,1,1.821,1.821v5.173A.583.583,0,0,1,181.245,295.56Zm-4.08-1.166h3.5V289.8a.656.656,0,0,0-.656-.656h-2.186a.656.656,0,0,0-.656.656Z" transform="translate(-169.589 -262.059)" fill="#fff"/>
  </g>
</svg>
