<svg xmlns="http://www.w3.org/2000/svg" width="27.08" height="26.621" viewBox="0 0 27.08 26.621">
  <g id="outline" transform="translate(-15.993 -16)">
    <path id="Path_11664" data-name="Path 11664" d="M19.666,117.113h9.18a3.681,3.681,0,0,0,.459-.03v.489a.459.459,0,1,0,.918,0v-.728a3.661,3.661,0,0,0,2.268-3.838,8.719,8.719,0,1,0-11.212-6.267,4.581,4.581,0,0,0-1.059,1.3,3.2,3.2,0,0,0-1.157.577.449.449,0,0,0-.049.017l-.89.365a.459.459,0,0,0-.016.842,3.2,3.2,0,0,0-.129.338,3.672,3.672,0,0,0,1.687,6.933Zm2.295-12.392a7.8,7.8,0,1,1,10.307,7.392,3.677,3.677,0,0,0-3.422-2.343h-.023a4.581,4.581,0,0,0-6.725-3.586A7.864,7.864,0,0,1,21.961,104.721Zm-3.41,6.2a.459.459,0,0,0,.26-.313,2.294,2.294,0,0,1,1.8-1.719.459.459,0,0,0,.329-.252,3.672,3.672,0,0,1,6.983,1.589.459.459,0,0,0,.459.459h.459a2.754,2.754,0,1,1,0,5.508h-9.18a2.754,2.754,0,0,1-1.115-5.272Z" transform="translate(0 -75.41)" fill="#fff"/>
    <path id="Path_11665" data-name="Path 11665" d="M317.421,40.756a.459.459,0,0,0-.6.246l-.885,2.117a.459.459,0,1,0,.847.354l.885-2.117A.459.459,0,0,0,317.421,40.756Z" transform="translate(-282.7 -23.302)" fill="#fff"/>
    <path id="Path_11666" data-name="Path 11666" d="M166.3,40.2a.459.459,0,0,0-.25.6l.871,2.123a.459.459,0,1,0,.849-.348l-.871-2.123A.459.459,0,0,0,166.3,40.2Z" transform="translate(-141.413 -22.775)" fill="#fff"/>
    <path id="Path_11667" data-name="Path 11667" d="M49,157.546l2.117.885a.459.459,0,0,0,.354-.847l-2.117-.885a.459.459,0,0,0-.354.847Z" transform="translate(-30.851 -132.594)" fill="#fff"/>
    <path id="Path_11668" data-name="Path 11668" d="M316.128,405.869a.459.459,0,0,0,.425-.633l-.871-2.123a.459.459,0,1,0-.849.348l.871,2.123A.459.459,0,0,0,316.128,405.869Z" transform="translate(-281.661 -364.634)" fill="#fff"/>
    <path id="Path_11669" data-name="Path 11669" d="M412.95,309.7a.459.459,0,0,0,.177-.883l-2.117-.885a.459.459,0,1,0-.354.847l2.117.885A.457.457,0,0,0,412.95,309.7Z" transform="translate(-371.754 -275.153)" fill="#fff"/>
    <path id="Path_11670" data-name="Path 11670" d="M410.864,159.519a.459.459,0,0,0,.6.25l2.123-.871a.459.459,0,1,0-.348-.849l-2.123.871A.459.459,0,0,0,410.864,159.519Z" transform="translate(-372.183 -133.867)" fill="#fff"/>
    <path id="Path_11671" data-name="Path 11671" d="M248.459,16a.459.459,0,0,0-.459.459v3.213a.459.459,0,1,0,.918,0V16.459A.459.459,0,0,0,248.459,16Z" transform="translate(-218.696)" fill="#fff"/>
    <path id="Path_11672" data-name="Path 11672" d="M89.742,81.742a.459.459,0,0,0,0,.649l2.272,2.272a.459.459,0,0,0,.649-.649l-2.272-2.272A.459.459,0,0,0,89.742,81.742Z" transform="translate(-69.391 -61.844)" fill="#fff"/>
    <path id="Path_11673" data-name="Path 11673" d="M24.459,240.918h3.213a.459.459,0,1,0,0-.918H24.459a.459.459,0,0,0,0,.918Z" transform="translate(-7.547 -211.149)" fill="#fff"/>
    <path id="Path_11674" data-name="Path 11674" d="M369.523,361.982a.459.459,0,0,0,.325-.784l-2.272-2.272a.459.459,0,1,0-.649.649l2.272,2.272A.457.457,0,0,0,369.523,361.982Z" transform="translate(-330.672 -323.125)" fill="#fff"/>
    <path id="Path_11675" data-name="Path 11675" d="M416,240.459a.459.459,0,0,0,.459.459h3.213a.459.459,0,1,0,0-.918h-3.213A.459.459,0,0,0,416,240.459Z" transform="translate(-377.057 -211.149)" fill="#fff"/>
    <path id="Path_11676" data-name="Path 11676" d="M369.2,81.742l-2.272,2.272a.459.459,0,1,0,.649.649l2.272-2.272a.459.459,0,1,0-.649-.649Z" transform="translate(-330.671 -61.843)" fill="#fff"/>
  </g>
</svg>
