<svg xmlns="http://www.w3.org/2000/svg" width="178.029" height="41.635" viewBox="0 0 178.029 41.635">
  <g id="Group_854" data-name="Group 854" transform="translate(-389 -375.121)">
    <path id="Path_11628" data-name="Path 11628" d="M442.469,397.389a1.5,1.5,0,0,0-2.077-.412l-24.57,16.461-3.15-2.095,25.778-17.275a1.5,1.5,0,0,0-1.665-2.492l-26.817,17.971-3.133-2.084,28.007-18.8a1.5,1.5,0,0,0-1.664-2.492l-29.045,19.491-3.178-2.112,30.28-20.288a1.5,1.5,0,0,0-1.666-2.493L415.8,390l-3.14-2.1,14.969-10.029a1.5,1.5,0,0,0-1.664-2.492L415.8,382.183l-10.163-6.809a1.5,1.5,0,0,0-1.664,2.492l9.135,6.121-3.141,2.1-7.936-5.318a1.5,1.5,0,0,0-1.666,2.493l12.743,8.538-3.141,2.1-11.544-7.734a1.5,1.5,0,0,0-1.664,2.492l10.515,7.045-3.141,2.1-9.315-6.241a1.5,1.5,0,0,0-1.666,2.492l8.288,5.553-3.189,2.136-6.923-4.6a1.5,1.5,0,0,0-1.666,2.492l7.512,5a1.471,1.471,0,0,0,.47.311l17.124,11.384a1.486,1.486,0,0,0,1.862.166l25.425-17.034a1.5,1.5,0,0,0,.412-2.081" fill="#fff"/>
    <path id="Path_11629" data-name="Path 11629" d="M478.732,386.278a.511.511,0,0,0-.456-.284h-1.954a.507.507,0,0,0-.456.286l-8.846,18.12a.51.51,0,0,0-.051.223v.184a.508.508,0,0,0,.507.508h2.252a.508.508,0,0,0,.457-.288l1.924-4h10.406l1.925,4a.508.508,0,0,0,.456.288h2.252a.507.507,0,0,0,.508-.508v-.184a.527.527,0,0,0-.051-.223ZM481.05,398h-7.5l3.751-7.787Z" transform="translate(-17.258 -2.407)" fill="#fff"/>
    <path id="Path_11630" data-name="Path 11630" d="M507.129,404.055h-7.654l7.815-8.723a.507.507,0,0,0,.13-.34v-1.437a.507.507,0,0,0-.508-.508H495.733a.507.507,0,0,0-.508.508v1.8a.507.507,0,0,0,.508.508H502.9l-7.814,8.723a.51.51,0,0,0-.13.339v1.438a.507.507,0,0,0,.508.508h11.666a.508.508,0,0,0,.508-.508v-1.8a.508.508,0,0,0-.508-.508" transform="translate(-23.452 -3.968)" fill="#fff"/>
    <path id="Path_11631" data-name="Path 11631" d="M532.612,394.6h-8.141a.508.508,0,0,0-.508.508v1.91a.508.508,0,0,0,.508.508H530.1v2.81a8.286,8.286,0,0,1-5.923,2.135c-4.565,0-7.633-2.759-7.633-6.865,0-4.09,3.039-6.946,7.389-6.946,2.862,0,5.088,1.229,6.108,3.371a.506.506,0,0,0,.7.227l1.845-1.02a.508.508,0,0,0,.2-.677c-1.577-3.07-4.922-4.9-8.944-4.9-6.078,0-10.492,4.206-10.492,10s4.46,9.841,10.847,9.841a11.812,11.812,0,0,0,8.773-3.55.515.515,0,0,0,.145-.357v-6.485a.508.508,0,0,0-.507-.508" transform="translate(-27.525 -2.332)" fill="#fff"/>
    <path id="Path_11632" data-name="Path 11632" d="M555.454,393.047h-2.063a.508.508,0,0,0-.507.508v8.38a4.964,4.964,0,0,1-4.105,2.33c-1.925,0-3.075-1.063-3.075-2.84v-7.87a.507.507,0,0,0-.507-.508h-2.063a.508.508,0,0,0-.507.508v7.87c0,3.523,2.211,5.711,5.77,5.711a6.514,6.514,0,0,0,4.487-1.623v.854a.507.507,0,0,0,.507.507h2.063a.507.507,0,0,0,.507-.507V393.555a.507.507,0,0,0-.507-.508" transform="translate(-34.004 -3.968)" fill="#fff"/>
    <path id="Path_11633" data-name="Path 11633" d="M572.032,391.223a7,7,0,0,0-4.511,1.486V386.5a.508.508,0,0,0-.507-.508h-2.063a.507.507,0,0,0-.508.508v18.3a.507.507,0,0,0,.508.508h2.063a.508.508,0,0,0,.507-.508v-.733a7.266,7.266,0,1,0,4.511-12.85m4.3,7.176c0,2.615-1.813,4.3-4.621,4.3a4.973,4.973,0,0,1-4.186-1.986v-4.635a5.049,5.049,0,0,1,4.186-2.013c2.807,0,4.621,1.7,4.621,4.33" transform="translate(-38.833 -2.407)" fill="#fff"/>
    <path id="Path_11634" data-name="Path 11634" d="M595.413,392.709a6.551,6.551,0,0,0-5.066,1.88v-1.11a.508.508,0,0,0-.507-.508h-2.063a.508.508,0,0,0-.509.508v12.812a.508.508,0,0,0,.509.508h2.063a.508.508,0,0,0,.507-.508v-7.9a5.555,5.555,0,0,1,5.049-2.7.574.574,0,0,0,.362-.146.51.51,0,0,0,.152-.361v-1.962a.508.508,0,0,0-.5-.508" transform="translate(-43.885 -3.892)" fill="#fff"/>
    <path id="Path_11635" data-name="Path 11635" d="M606.177,407.062a7.011,7.011,0,0,0,7.345-7.149c0-4.308-3.17-7.2-7.889-7.2a8.608,8.608,0,0,0-5.662,1.993.506.506,0,0,0-.125.646l.9,1.6a.5.5,0,0,0,.772.135,6.147,6.147,0,0,1,4.174-1.549c2.429,0,4.085,1.049,4.63,2.906H599.61a.508.508,0,0,0-.5.453,7.543,7.543,0,0,0,1.675,5.944,7.1,7.1,0,0,0,5.4,2.227m4.2-5.91a4.016,4.016,0,0,1-4.2,3.09,3.772,3.772,0,0,1-4.026-3.09Z" transform="translate(-46.493 -3.893)" fill="#fff"/>
    <path id="Path_11636" data-name="Path 11636" d="M548.059,385.995a1.363,1.363,0,1,0,1.418,1.361,1.385,1.385,0,0,0-1.418-1.361" transform="translate(-34.889 -2.407)" fill="#fff"/>
    <path id="Path_11637" data-name="Path 11637" d="M553.637,385.995a1.363,1.363,0,1,0,1.418,1.361,1.385,1.385,0,0,0-1.418-1.361" transform="translate(-36.123 -2.407)" fill="#fff"/>
  </g>
</svg>
