<svg xmlns="http://www.w3.org/2000/svg" width="9.272" height="16.337" viewBox="0 0 9.272 16.337">
  <path id="facebook" d="M6.227,16.336H3.611a.793.793,0,0,1-.792-.792v-5.9H1.293A.793.793,0,0,1,.5,8.85V6.322a.793.793,0,0,1,.792-.792H2.819V4.263a4.311,4.311,0,0,1,1.14-3.089A4.106,4.106,0,0,1,6.986,0l2,0A.794.794,0,0,1,9.772.8V3.143a.793.793,0,0,1-.792.792H7.637c-.41,0-.514.082-.536.107-.037.042-.081.16-.081.486v1H8.879a.805.805,0,0,1,.392.1.8.8,0,0,1,.408.693V8.851a.793.793,0,0,1-.792.792H7.02v5.9a.793.793,0,0,1-.793.792Zm-2.451-.958H6.062V9.214a.53.53,0,0,1,.529-.529H8.72v-2.2H6.591a.53.53,0,0,1-.529-.529V4.529a1.631,1.631,0,0,1,.32-1.12,1.623,1.623,0,0,1,1.254-.431H8.815V.96l-1.829,0A3.023,3.023,0,0,0,3.777,4.263V5.958a.53.53,0,0,1-.529.529H1.458v2.2h1.79a.53.53,0,0,1,.529.529ZM8.98.961h0Zm0,0" transform="translate(-0.5 0)" fill="#002c7a"/>
</svg>
