<svg xmlns="http://www.w3.org/2000/svg" width="17.738" height="17.738" viewBox="0 0 17.738 17.738">
  <g id="instagram_1_" data-name="instagram (1)" transform="translate(0.001)">
    <path id="Path_11650" data-name="Path 11650" d="M12.935,0H4.8A4.807,4.807,0,0,0,0,4.8v8.135a4.807,4.807,0,0,0,4.8,4.8h8.135a4.807,4.807,0,0,0,4.8-4.8V4.8a4.807,4.807,0,0,0-4.8-4.8ZM16.7,12.936A3.766,3.766,0,0,1,12.935,16.7H4.8a3.766,3.766,0,0,1-3.762-3.761V4.8A3.766,3.766,0,0,1,4.8,1.04h8.135A3.766,3.766,0,0,1,16.7,4.8Zm0,0" transform="translate(0 0)" fill="#002c7a"/>
    <path id="Path_11651" data-name="Path 11651" d="M120.854,116a4.85,4.85,0,1,0,4.85,4.85A4.855,4.855,0,0,0,120.854,116Zm0,8.66a3.81,3.81,0,1,1,3.81-3.81A3.815,3.815,0,0,1,120.854,124.664Zm0,0" transform="translate(-111.986 -111.985)" fill="#002c7a"/>
    <path id="Path_11652" data-name="Path 11652" d="M359.41,66.285a1.433,1.433,0,1,0,1.433,1.433A1.435,1.435,0,0,0,359.41,66.285Zm0,1.826a.393.393,0,1,1,.393-.393A.394.394,0,0,1,359.41,68.112Zm0,0" transform="translate(-345.576 -63.989)" fill="#002c7a"/>
  </g>
</svg>
