<svg xmlns="http://www.w3.org/2000/svg" width="18.544" height="14.045" viewBox="0 0 18.544 14.045">
  <g id="youtube_1_" data-name="youtube (1)" transform="translate(0.001)">
    <path id="Path_11653" data-name="Path 11653" d="M196.156,108.858l-4.1-2.242a.752.752,0,0,0-1.114.66v4.445a.751.751,0,0,0,1.109.663l4.1-2.2a.752.752,0,0,0,0-1.323Zm-4.124,2.3V107.84l3.062,1.675Zm0,0" transform="translate(-184.031 -102.665)" fill="#002c7a"/>
    <path id="Path_11654" data-name="Path 11654" d="M18.406,3.315V3.306a4.241,4.241,0,0,0-.817-2.152,3.017,3.017,0,0,0-2-.937L15.5.206l-.032,0C13.014.025,9.311,0,9.274,0H9.268C9.231,0,5.528.025,3.055.2l-.033,0-.087.01a2.941,2.941,0,0,0-1.987.966A4.444,4.444,0,0,0,.138,3.3l0,.019C.13,3.377,0,4.856,0,6.34V7.728C0,9.212.13,10.69.136,10.753v.009a4.2,4.2,0,0,0,.814,2.126,3.079,3.079,0,0,0,2.065.924c.075.009.14.016.185.024l.043.006c1.415.135,5.853.2,6.042.2H9.3c.037,0,3.739-.024,6.191-.2l.032,0,.1-.012a2.873,2.873,0,0,0,1.97-.942,4.444,4.444,0,0,0,.811-2.113l0-.019c.006-.062.137-1.541.137-3.025V6.34c0-1.484-.131-2.963-.137-3.025Zm-.95,4.413c0,1.374-.12,2.789-.131,2.919a3.45,3.45,0,0,1-.533,1.505,1.787,1.787,0,0,1-1.282.6l-.116.013c-2.371.171-5.934.2-6.1.2-.184,0-4.557-.07-5.929-.2-.07-.011-.146-.02-.226-.029a2.032,2.032,0,0,1-1.39-.58l-.01-.011a3.13,3.13,0,0,1-.523-1.49c-.009-.1-.132-1.53-.132-2.923V6.34c0-1.372.12-2.786.131-2.918A3.38,3.38,0,0,1,1.75,1.916,1.875,1.875,0,0,1,3.06,1.3l.089-.011c2.406-.172,5.994-.2,6.123-.2s3.716.027,6.1.2l.1.011a1.946,1.946,0,0,1,1.331.6l0,0a3.181,3.181,0,0,1,.523,1.512c.008.093.132,1.527.132,2.923Zm0,0" fill="#002c7a"/>
  </g>
</svg>
