<svg id="play-button" xmlns="http://www.w3.org/2000/svg" width="96.04" height="96.041" viewBox="0 0 96.04 96.041">
  <g id="Group_977" data-name="Group 977">
    <g id="Group_976" data-name="Group 976">
      <path id="Path_11680" data-name="Path 11680" d="M48.02,0A48.02,48.02,0,1,0,96.04,48.02,48.074,48.074,0,0,0,48.02,0Zm0,92.039A44.019,44.019,0,1,1,92.039,48.02,44.068,44.068,0,0,1,48.02,92.039Z" fill="#fff"/>
      <path id="Path_11681" data-name="Path 11681" d="M223.1,167.657,195.083,149.65A2,2,0,0,0,192,151.332v36.015a2,2,0,0,0,3.083,1.682L223.1,171.022a2,2,0,0,0,0-3.365ZM196,183.682V155l22.31,14.342Z" transform="translate(-155.985 -121.32)" fill="#fff"/>
    </g>
  </g>
</svg>
