<svg xmlns="http://www.w3.org/2000/svg" width="47" height="65.397" viewBox="0 0 47 65.397">
  <g id="plant" transform="translate(-72.016)">
    <g id="Group_1058" data-name="Group 1058" transform="translate(72.016)">
      <path id="Path_11710" data-name="Path 11710" d="M115.745,45.292a.958.958,0,0,0,1.2-.632l2.031-6.581a.957.957,0,0,0-.914-1.239H104.8V29.27a15.119,15.119,0,0,0,3.348.392,10.351,10.351,0,0,0,4.588-.987c4.122-2.033,5.728-6.963,5.795-7.172a.957.957,0,0,0-.587-1.19c-.206-.074-5.1-1.8-9.217.233a10.66,10.66,0,0,0-3.926,3.52h0V11.517a11.517,11.517,0,1,0-23.034,0v2.637l-7.626,5.418a5.04,5.04,0,1,0,5.837,8.217l.707-.5.49.69a5.033,5.033,0,0,0,6.815,1.333A.957.957,0,0,0,86.955,27.7a3.122,3.122,0,0,1-4.226-.828L82,25.848a1.508,1.508,0,0,0-2.1-.356l-1.038.738a3.126,3.126,0,1,1-3.621-5.1L82.607,15.9l5.22,7.348a3.1,3.1,0,0,1,.577,1.876.957.957,0,1,0,1.913.042,5,5,0,0,0-.93-3.026l-5.455-7.68a1.509,1.509,0,0,0-.256-.277V11.517a9.6,9.6,0,1,1,19.207,0v4.329a10.648,10.648,0,0,0-3.9-3.514c-4.114-2.047-9.01-.338-9.216-.265a.957.957,0,0,0-.591,1.187c.066.209,1.655,5.144,5.77,7.192a10.376,10.376,0,0,0,4.631,1,15.143,15.143,0,0,0,3.307-.382V36.841H89.618A.957.957,0,0,0,88.7,38.08L94.73,57.6H91.611a.957.957,0,0,0-.778,1.513L95.037,65a.957.957,0,0,0,.778.4h16.046a.957.957,0,0,0,.778-.4l4.2-5.882a.957.957,0,0,0-.778-1.513h-3.119l2.851-9.235a.957.957,0,0,0-1.828-.565l-3.025,9.8H96.733L90.915,38.755h25.848L115.114,44.1A.956.956,0,0,0,115.745,45.292Zm-6.177-23.029a10.514,10.514,0,0,1,6.765-.417,10.514,10.514,0,0,1-4.449,5.114,10.513,10.513,0,0,1-6.765.418A10.514,10.514,0,0,1,109.568,22.263ZM95.8,18.733A10.517,10.517,0,0,1,91.364,13.6a10.471,10.471,0,0,1,6.765.443,10.516,10.516,0,0,1,4.432,5.131A10.469,10.469,0,0,1,95.8,18.733Zm18.41,40.781-2.837,3.969H96.307L93.47,59.514Z" transform="translate(-72.016)" fill="#fff"/>
    </g>
  </g>
</svg>
